<mxfile host="app.diagrams.net" modified="2024-04-16T06:58:03.513Z" agent="Mozilla/5.0 (Windows NT 10.0; Win64; x64) AppleWebKit/537.36 (KHTML, like Gecko) Chrome/123.0.0.0 Safari/537.36" etag="Q8EQ2vZgj7KfH-LCB80H" version="24.2.2" type="device">
  <diagram name="Page-1" id="u07JYMBhuvF8HXLKrlWf">
    <mxGraphModel dx="2394" dy="1194" grid="1" gridSize="10" guides="1" tooltips="1" connect="1" arrows="1" fold="1" page="1" pageScale="1" pageWidth="850" pageHeight="1100" math="0" shadow="0">
      <root>
        <mxCell id="0" />
        <mxCell id="1" parent="0" />
      </root>
    </mxGraphModel>
  </diagram>
</mxfile>
